<?xml version="1.0" encoding="utf-8"?>
<!-- Generator: Adobe Illustrator 26.1.0, SVG Export Plug-In . SVG Version: 6.00 Build 0)  -->
<svg version="1.1" id="Calque_1" xmlns="http://www.w3.org/2000/svg" xmlns:xlink="http://www.w3.org/1999/xlink" x="0px" y="0px"
	 width="260px" height="50px" viewBox="0 0 260 50" style="enable-background:new 0 0 260 50;" xml:space="preserve">
<g>
	<g>
		<path d="M43.89,39.43c0,0.71,0,1.43,0,2.14c-12.92,0.56-25.84,1.25-38.75,2.06c0-0.76,0-1.51,0-2.27
			c3.89-0.23,7.79-0.45,11.68-0.66c-2.77-1.47-4.96-3.58-6.55-6.32c-1.6-2.75-2.39-5.92-2.39-9.49c0-5.39,1.87-9.94,5.61-13.58
			c3.74-3.64,8.46-5.41,14.17-5.4c5.71,0,10.47,2.03,14.3,5.99c-1.32,1.37-2.64,2.76-3.95,4.14c-1.76-1.58-3.41-2.69-4.98-3.32
			c-1.56-0.62-3.4-0.93-5.5-0.91c-3.72,0.03-6.85,1.22-9.38,3.62c-2.53,2.39-3.79,5.45-3.79,9.14c0,3.69,1.25,6.72,3.76,9.08
			c2.51,2.35,5.48,3.43,8.92,3.28c2.14-0.09,3.98-0.52,5.53-1.27c1.54-0.75,3.16-1.92,4.85-3.48c1.33,1.26,2.67,2.51,4,3.76
			c-1.55,1.66-3.02,2.92-4.43,3.79C39.29,39.62,41.59,39.52,43.89,39.43z"/>
		<path d="M49,39.22c0.01-10.82,0.01-21.65,0.02-32.47c2.07,0,4.14,0,6.22-0.01c-0.01,10.75-0.01,21.5-0.02,32.25
			c1.7-0.06,3.41-0.12,5.11-0.17c0,0.7,0,1.4,0,2.1c-5.48,0.19-10.96,0.41-16.43,0.64c0-0.71,0-1.43,0-2.14
			C45.59,39.36,47.3,39.29,49,39.22z"/>
		<path d="M104.37,37.83c0,0.68,0,1.36,0,2.04c-3.78,0.05-7.55,0.11-11.33,0.18c0-8.1,0.01-16.21,0.01-24.31
			c-6.96,8.14-13.92,16.39-20.88,24.81c-3.95,0.12-7.9,0.24-11.85,0.38c0-0.7,0-1.4,0-2.1c1.7-0.06,3.41-0.11,5.11-0.16
			c0.01-10.64,0.01-21.28,0.02-31.92c2.07,0,4.14,0,6.22,0c-0.01,8.42-0.01,16.84-0.02,25.26c7.14-8.58,14.27-16.97,21.4-25.27
			c2.07,0,4.14,0,6.22,0c0,10.39-0.01,20.78-0.01,31.18C100.97,37.87,102.67,37.85,104.37,37.83z"/>
		<path d="M109.48,37.77c0-10.35,0.01-20.7,0.01-31.05c8.62,0,17.24,0,25.86,0c0,1.75,0,3.49,0,5.24c-6.55,0-13.1,0-19.65,0.01
			c0,2.91,0,5.83,0,8.74c5.88-0.02,11.77-0.03,17.65-0.02c0,1.65,0,3.3,0,4.96c-5.88-0.01-11.77,0-17.65,0.03c0,2.95,0,5.89,0,8.84
			c6.76-0.04,13.53-0.05,20.29-0.04c0,1.07,0,2.14,0,3.21c1.7,0,3.41,0.01,5.11,0.02c0,0.68,0,1.35,0,2.03
			c-12.24-0.07-24.49-0.02-36.73,0.14c0-0.68,0-1.36,0-2.04C106.08,37.8,107.78,37.79,109.48,37.77z"/>
		<path d="M170.67,38.06c0,0.68,0,1.37,0,2.05c-10.61-0.22-21.22-0.35-31.83-0.39c0-0.68,0-1.35,0-2.03
			c1.7,0.01,3.41,0.02,5.11,0.03c0-10.33,0-20.67-0.01-31c8.18,0,16.37,0,24.55,0.01c-0.02,1.75-0.03,3.5-0.05,5.25
			c-6.09-0.02-12.19-0.04-18.28-0.05c0,3.03,0,6.06,0,9.09c5.44,0.02,10.89,0.06,16.33,0.1c0,1.73,0,3.46,0,5.19
			c-5.44-0.06-10.89-0.11-16.33-0.14c0,3.87,0,7.73,0,11.6C157,37.83,163.84,37.93,170.67,38.06z"/>
		<path d="M203.91,38.95c0,0.7,0,1.41,0,2.11c-11.08-0.41-22.16-0.73-33.24-0.95c0-0.68,0-1.37,0-2.05c1.7,0.03,3.41,0.07,5.11,0.1
			c-0.01-10.48-0.01-20.96-0.02-31.44c2.07,0,4.14,0,6.22,0c0.01,9.42,0.01,18.84,0.02,28.25c5.6,0.12,11.2,0.27,16.81,0.43
			c0,1.12,0,2.25,0,3.37C200.5,38.84,202.21,38.89,203.91,38.95z"/>
		<path d="M205.6,39.01c-0.01-10.76-0.01-21.51-0.02-32.27c2.07,0,4.14,0,6.22,0.01c0.01,10.83,0.01,21.66,0.02,32.49
			c1.7,0.07,3.41,0.13,5.11,0.2c0,0.71,0,1.43,0,2.14c-5.48-0.24-10.96-0.46-16.43-0.65c0-0.7,0-1.4,0-2.1
			C202.19,38.89,203.89,38.95,205.6,39.01z"/>
		<path d="M214.13,41.47c0-0.71,0-1.42,0-2.14c1.69,0.07,3.37,0.14,5.06,0.21c3.72-5.11,7.44-10.28,11.16-15.53
			c-3.92-5.85-7.84-11.59-11.76-17.26c2.56,0,5.13,0.01,7.69,0.01c2.74,3.97,5.48,7.99,8.22,12.05c0.09,0,0.18,0,0.26,0
			c2.74-3.96,5.47-7.97,8.21-12.03c2.56,0,5.13,0.01,7.69,0.01c-3.91,5.92-7.83,11.73-11.74,17.44c3.71,5.51,7.41,11.11,11.11,16.83
			c1.7,0.1,3.4,0.2,5.1,0.3c0,0.76,0,1.51,0,2.27c-3.77-0.24-7.54-0.46-11.32-0.68c-3.02-4.71-6.04-9.34-9.06-13.92
			c-0.09,0-0.18-0.01-0.26-0.01c-3.02,4.37-6.03,8.69-9.05,12.96C221.68,41.8,217.91,41.63,214.13,41.47z"/>
	</g>
</g>
</svg>
